<mxfile host="app.diagrams.net" modified="2024-01-22T21:22:50.821Z" agent="Mozilla/5.0 (Windows NT 10.0; Win64; x64) AppleWebKit/537.36 (KHTML, like Gecko) Chrome/118.0.0.0 YaBrowser/23.11.0.0 Safari/537.36" etag="Mp8i0baSR3gTJ1e1lLjZ" version="22.1.21" type="github">
  <diagram id="C5RBs43oDa-KdzZeNtuy" name="Page-1">
    <mxGraphModel dx="948" dy="1744" grid="1" gridSize="10" guides="1" tooltips="1" connect="1" arrows="1" fold="1" page="1" pageScale="1" pageWidth="827" pageHeight="1169" math="0" shadow="0">
      <root>
        <mxCell id="WIyWlLk6GJQsqaUBKTNV-0" />
        <mxCell id="WIyWlLk6GJQsqaUBKTNV-1" parent="WIyWlLk6GJQsqaUBKTNV-0" />
        <mxCell id="TbXfhD8qp0k2RTO1YAXH-0" style="edgeStyle=orthogonalEdgeStyle;rounded=0;orthogonalLoop=1;jettySize=auto;html=1;" edge="1" parent="WIyWlLk6GJQsqaUBKTNV-1" source="TbXfhD8qp0k2RTO1YAXH-1" target="TbXfhD8qp0k2RTO1YAXH-3">
          <mxGeometry relative="1" as="geometry">
            <mxPoint x="380" y="-350" as="targetPoint" />
          </mxGeometry>
        </mxCell>
        <mxCell id="TbXfhD8qp0k2RTO1YAXH-1" value="START" style="ellipse;whiteSpace=wrap;html=1;" vertex="1" parent="WIyWlLk6GJQsqaUBKTNV-1">
          <mxGeometry x="320" y="-470" width="120" height="80" as="geometry" />
        </mxCell>
        <mxCell id="TbXfhD8qp0k2RTO1YAXH-2" value="" style="edgeStyle=orthogonalEdgeStyle;rounded=0;orthogonalLoop=1;jettySize=auto;html=1;" edge="1" parent="WIyWlLk6GJQsqaUBKTNV-1" source="TbXfhD8qp0k2RTO1YAXH-3">
          <mxGeometry relative="1" as="geometry">
            <mxPoint x="380" y="-240" as="targetPoint" />
          </mxGeometry>
        </mxCell>
        <mxCell id="TbXfhD8qp0k2RTO1YAXH-3" value="string[] input&lt;br&gt;string[]inputArrray&lt;br&gt;string[]resultArray" style="shape=parallelogram;perimeter=parallelogramPerimeter;whiteSpace=wrap;html=1;fixedSize=1;" vertex="1" parent="WIyWlLk6GJQsqaUBKTNV-1">
          <mxGeometry x="300" y="-350" width="160" height="60" as="geometry" />
        </mxCell>
        <mxCell id="TbXfhD8qp0k2RTO1YAXH-4" style="edgeStyle=orthogonalEdgeStyle;rounded=0;orthogonalLoop=1;jettySize=auto;html=1;" edge="1" parent="WIyWlLk6GJQsqaUBKTNV-1" source="TbXfhD8qp0k2RTO1YAXH-5">
          <mxGeometry relative="1" as="geometry">
            <mxPoint x="380" y="-150" as="targetPoint" />
          </mxGeometry>
        </mxCell>
        <mxCell id="TbXfhD8qp0k2RTO1YAXH-5" value="string[ ] inputArray&lt;br&gt;string[ ] resultArray&lt;br&gt;n &amp;lt; = 3&lt;br&gt;count = 0" style="rounded=0;whiteSpace=wrap;html=1;" vertex="1" parent="WIyWlLk6GJQsqaUBKTNV-1">
          <mxGeometry x="320" y="-250" width="120" height="70" as="geometry" />
        </mxCell>
        <mxCell id="TbXfhD8qp0k2RTO1YAXH-6" value="YES" style="edgeStyle=orthogonalEdgeStyle;rounded=0;orthogonalLoop=1;jettySize=auto;html=1;" edge="1" parent="WIyWlLk6GJQsqaUBKTNV-1" source="TbXfhD8qp0k2RTO1YAXH-8">
          <mxGeometry relative="1" as="geometry">
            <mxPoint x="380" y="-30" as="targetPoint" />
          </mxGeometry>
        </mxCell>
        <mxCell id="TbXfhD8qp0k2RTO1YAXH-7" style="edgeStyle=orthogonalEdgeStyle;rounded=0;orthogonalLoop=1;jettySize=auto;html=1;" edge="1" parent="WIyWlLk6GJQsqaUBKTNV-1" source="TbXfhD8qp0k2RTO1YAXH-8">
          <mxGeometry relative="1" as="geometry">
            <mxPoint x="560" y="-110" as="targetPoint" />
          </mxGeometry>
        </mxCell>
        <mxCell id="TbXfhD8qp0k2RTO1YAXH-8" value="i &amp;lt; inputArray.Length" style="rhombus;whiteSpace=wrap;html=1;" vertex="1" parent="WIyWlLk6GJQsqaUBKTNV-1">
          <mxGeometry x="290" y="-150" width="180" height="80" as="geometry" />
        </mxCell>
        <mxCell id="TbXfhD8qp0k2RTO1YAXH-9" style="edgeStyle=orthogonalEdgeStyle;rounded=0;orthogonalLoop=1;jettySize=auto;html=1;" edge="1" parent="WIyWlLk6GJQsqaUBKTNV-1" source="TbXfhD8qp0k2RTO1YAXH-11" target="TbXfhD8qp0k2RTO1YAXH-13">
          <mxGeometry relative="1" as="geometry">
            <mxPoint x="380" y="90" as="targetPoint" />
          </mxGeometry>
        </mxCell>
        <mxCell id="TbXfhD8qp0k2RTO1YAXH-10" value="YES" style="edgeLabel;html=1;align=center;verticalAlign=middle;resizable=0;points=[];" vertex="1" connectable="0" parent="TbXfhD8qp0k2RTO1YAXH-9">
          <mxGeometry x="-0.06" y="3" relative="1" as="geometry">
            <mxPoint as="offset" />
          </mxGeometry>
        </mxCell>
        <mxCell id="TbXfhD8qp0k2RTO1YAXH-11" value="inputArray[i].Length &amp;lt; = 3" style="rhombus;whiteSpace=wrap;html=1;" vertex="1" parent="WIyWlLk6GJQsqaUBKTNV-1">
          <mxGeometry x="290" y="-30" width="180" height="80" as="geometry" />
        </mxCell>
        <mxCell id="TbXfhD8qp0k2RTO1YAXH-12" style="edgeStyle=orthogonalEdgeStyle;rounded=0;orthogonalLoop=1;jettySize=auto;html=1;entryX=0;entryY=0.5;entryDx=0;entryDy=0;" edge="1" parent="WIyWlLk6GJQsqaUBKTNV-1" source="TbXfhD8qp0k2RTO1YAXH-13" target="TbXfhD8qp0k2RTO1YAXH-8">
          <mxGeometry relative="1" as="geometry">
            <Array as="points">
              <mxPoint x="240" y="120" />
              <mxPoint x="240" y="-110" />
            </Array>
          </mxGeometry>
        </mxCell>
        <mxCell id="TbXfhD8qp0k2RTO1YAXH-13" value="i = i + 1" style="rounded=0;whiteSpace=wrap;html=1;" vertex="1" parent="WIyWlLk6GJQsqaUBKTNV-1">
          <mxGeometry x="320" y="90" width="120" height="60" as="geometry" />
        </mxCell>
        <mxCell id="TbXfhD8qp0k2RTO1YAXH-14" style="edgeStyle=orthogonalEdgeStyle;rounded=0;orthogonalLoop=1;jettySize=auto;html=1;" edge="1" parent="WIyWlLk6GJQsqaUBKTNV-1">
          <mxGeometry relative="1" as="geometry">
            <mxPoint x="625" y="-30" as="targetPoint" />
            <mxPoint x="625" y="-70" as="sourcePoint" />
          </mxGeometry>
        </mxCell>
        <mxCell id="TbXfhD8qp0k2RTO1YAXH-15" value="PRINT" style="shape=document;whiteSpace=wrap;html=1;boundedLbl=1;" vertex="1" parent="WIyWlLk6GJQsqaUBKTNV-1">
          <mxGeometry x="660" y="880" width="130" height="80" as="geometry" />
        </mxCell>
        <mxCell id="TbXfhD8qp0k2RTO1YAXH-16" value="END" style="ellipse;whiteSpace=wrap;html=1;" vertex="1" parent="WIyWlLk6GJQsqaUBKTNV-1">
          <mxGeometry x="665" y="1000" width="120" height="80" as="geometry" />
        </mxCell>
      </root>
    </mxGraphModel>
  </diagram>
</mxfile>
